<?xml version="1.0" encoding="UTF-8"?>
<svg xmlns="http://www.w3.org/2000/svg" xmlns:xlink="http://www.w3.org/1999/xlink" width="75px" height="75px" viewBox="0 0 75 75" version="1.1">
<defs>
<linearGradient id="linear0" gradientUnits="userSpaceOnUse" x1="0" y1="0" x2="1" y2="1" gradientTransform="matrix(67.5,0,0,67.5,3.75,3.75)">
<stop offset="0" style="stop-color:rgb(5.098039%,71.764706%,92.941176%);stop-opacity:1;"/>
<stop offset="1" style="stop-color:rgb(21.960784%,30.196078%,32.941176%);stop-opacity:1;"/>
</linearGradient>
<filter id="alpha" filterUnits="objectBoundingBox" x="0%" y="0%" width="100%" height="100%">
  <feColorMatrix type="matrix" in="SourceGraphic" values="0 0 0 0 1 0 0 0 0 1 0 0 0 0 1 0 0 0 1 0"/>
</filter>
<mask id="mask0">
  <g filter="url(#alpha)">
<rect x="0" y="0" width="75" height="75" style="fill:rgb(0%,0%,0%);fill-opacity:0.6;stroke:none;"/>
  </g>
</mask>
<clipPath id="clip1">
  <rect x="0" y="0" width="75" height="75"/>
</clipPath>
<g id="surface5" clip-path="url(#clip1)">
<path style="fill:none;stroke-width:2;stroke-linecap:butt;stroke-linejoin:miter;stroke:rgb(100%,100%,100%);stroke-opacity:1;stroke-miterlimit:4;" d="M 30 100 C 30 61.34375 61.34375 30 100 30 C 138.65625 30 170 61.34375 170 100 " transform="matrix(0.375,0,0,0.375,0,0)"/>
</g>
<mask id="mask1">
  <g filter="url(#alpha)">
<rect x="0" y="0" width="75" height="75" style="fill:rgb(0%,0%,0%);fill-opacity:0.4;stroke:none;"/>
  </g>
</mask>
<clipPath id="clip2">
  <rect x="0" y="0" width="75" height="75"/>
</clipPath>
<g id="surface8" clip-path="url(#clip2)">
<path style="fill:none;stroke-width:2;stroke-linecap:butt;stroke-linejoin:miter;stroke:rgb(100%,100%,100%);stroke-opacity:1;stroke-miterlimit:4;" d="M 40 60 C 52.65625 38.9375 75.427083 26.052083 100 26.052083 C 124.572917 26.052083 147.34375 38.9375 160 60 " transform="matrix(0.375,0,0,0.375,0,0)"/>
</g>
<mask id="mask2">
  <g filter="url(#alpha)">
<rect x="0" y="0" width="75" height="75" style="fill:rgb(0%,0%,0%);fill-opacity:0.4;stroke:none;"/>
  </g>
</mask>
<clipPath id="clip3">
  <rect x="0" y="0" width="75" height="75"/>
</clipPath>
<g id="surface11" clip-path="url(#clip3)">
<path style="fill:none;stroke-width:2;stroke-linecap:butt;stroke-linejoin:miter;stroke:rgb(100%,100%,100%);stroke-opacity:1;stroke-miterlimit:4;" d="M 40 140 C 52.65625 118.9375 75.427083 106.052083 100 106.052083 C 124.572917 106.052083 147.34375 118.9375 160 140 " transform="matrix(0.375,0,0,0.375,0,0)"/>
</g>
</defs>
<g id="surface1">
<path style=" stroke:none;fill-rule:nonzero;fill:url(#linear0);" d="M 71.25 37.5 C 71.25 18.859375 56.140625 3.75 37.5 3.75 C 18.859375 3.75 3.75 18.859375 3.75 37.5 C 3.75 56.140625 18.859375 71.25 37.5 71.25 C 56.140625 71.25 71.25 56.140625 71.25 37.5 Z M 71.25 37.5 "/>
<use xlink:href="#surface5" mask="url(#mask0)"/>
<use xlink:href="#surface8" mask="url(#mask1)"/>
<use xlink:href="#surface11" mask="url(#mask2)"/>
<path style=" stroke:none;fill-rule:nonzero;fill:rgb(100%,100%,100%);fill-opacity:1;" d="M 30 33.75 L 37.5 33.75 L 37.5 30 L 30 30 L 30 33.75 L 26.25 33.75 L 26.25 26.25 L 41.25 26.25 L 41.25 37.5 L 30 37.5 L 30 33.75 M 45 33.75 L 52.5 33.75 L 52.5 30 L 45 30 L 45 33.75 "/>
<path style=" stroke:none;fill-rule:nonzero;fill:rgb(100%,100%,100%);fill-opacity:1;" d="M 51.75 28.125 C 51.75 27.503906 51.246094 27 50.625 27 C 50.003906 27 49.5 27.503906 49.5 28.125 C 49.5 28.746094 50.003906 29.25 50.625 29.25 C 51.246094 29.25 51.75 28.746094 51.75 28.125 Z M 51.75 28.125 "/>
</g>
</svg>
